<?xml version="1.0" encoding="UTF-8"?>
<svg version="1.1" xmlns="http://www.w3.org/2000/svg" width="1545" height="163">
<path d="M0 0 C1.10794922 -0.01224609 2.21589844 -0.02449219 3.35742188 -0.03710938 C14.23354981 -0.05617915 24.13318144 0.85502662 33.8125 6.0625 C34.82570313 6.57103516 34.82570313 6.57103516 35.859375 7.08984375 C39.63260596 9.04330781 42.38426786 11.057784 45.3125 14.1875 C47.94472962 15.44186187 47.94472962 15.44186187 50.3125 16.1875 C51.3953125 15.32125 51.3953125 15.32125 52.5 14.4375 C53.428125 13.695 54.35625 12.9525 55.3125 12.1875 C56.116875 11.48625 56.92125 10.785 57.75 10.0625 C64.2261287 5.32386925 71.92798412 5.02180324 79.6875 5.0625 C80.41710937 5.05863281 81.14671875 5.05476562 81.8984375 5.05078125 C88.06057448 5.06178507 94.09317461 5.21005741 99.6875 8.0625 C100.68910156 8.55363281 100.68910156 8.55363281 101.7109375 9.0546875 C103.3125 10.1875 103.3125 10.1875 104.3125 13.1875 C105.3025 13.5175 106.2925 13.8475 107.3125 14.1875 C107.6425 15.1775 107.9725 16.1675 108.3125 17.1875 C108.9725 17.785625 109.6325 18.38375 110.3125 19 C114.31466084 23.37736342 113.49502375 30.02453276 113.5 35.6875 C113.51224609 36.42097656 113.52449219 37.15445313 113.53710938 37.91015625 C113.54910604 42.38091376 113.10496213 46.0113777 111.3125 50.1875 C110.6525 50.8475 109.9925 51.5075 109.3125 52.1875 C108.60539322 53.83741582 107.93306011 55.50312256 107.3125 57.1875 C109.66527269 59.91176311 111.93746331 61.0016763 115.3125 62.1875 C116.09625 61.218125 116.88 60.24875 117.6875 59.25 C119.22538705 57.34787654 120.10509913 56.29120043 122.3125 55.1875 C123.1478125 54.445 123.1478125 54.445 124 53.6875 C129.42883159 50.16609573 137.05447356 51.03447899 143.3125 51.0625 C144.17617188 51.05863281 145.03984375 51.05476563 145.9296875 51.05078125 C152.22747979 51.06035236 158.21489737 51.48017126 164.3125 53.1875 C164.89 52.424375 165.4675 51.66125 166.0625 50.875 C171.00435838 44.97222471 175.82450616 43.88949942 183.3125 43.1875 C187.03824442 43.22889716 190.63113039 43.6310139 194.3125 44.1875 C195.158125 44.3009375 196.00375 44.414375 196.875 44.53125 C203.87500851 45.66875138 211.20473391 48.07973391 216.3125 53.1875 C219.55820741 55.47279928 219.55820741 55.47279928 223.3125 56.1875 C223.3125 56.8475 223.3125 57.5075 223.3125 58.1875 C223.9725 58.1875 224.6325 58.1875 225.3125 58.1875 C225.539375 57.465625 225.76625 56.74375 226 56 C227.56459743 52.64729122 229.67786173 50.75627231 232.3125 48.1875 C232.61671875 47.53136719 232.9209375 46.87523437 233.234375 46.19921875 C235.58077478 41.82097279 240.94202174 39.74687888 245.375 37.9375 C252.89962266 36.01631975 260.26905965 36.00442021 268 36 C269.10794922 35.98775391 270.21589844 35.97550781 271.35742188 35.96289062 C281.1723483 35.94568152 290.9569569 36.1993805 299.5625 41.375 C304.9816499 44.29626049 307.38390494 44.47202893 313.3125 43.1875 C317.54671394 43.3100089 320.71870233 43.79163489 324.3125 46.1875 C325.405625 45.56875 326.49875 44.95 327.625 44.3125 C331.94885589 42.11979728 336.09859886 41.41892384 340.85546875 40.68359375 C343.43056711 40.30627145 343.43056711 40.30627145 345.8125 38.6875 C353.17118241 34.27229056 362.14422962 34.95276145 370.3125 36.1875 C371.158125 36.3009375 372.00375 36.414375 372.875 36.53125 C379.87500851 37.66875138 387.20473391 40.07973391 392.3125 45.1875 C395.55820741 47.47279928 395.55820741 47.47279928 399.3125 48.1875 C399.3125 48.8475 399.3125 49.5075 399.3125 50.1875 C399.9725 50.1875 400.6325 50.1875 401.3125 50.1875 C401.539375 49.465625 401.76625 48.74375 402 48 C403.56459743 44.64729122 405.67786173 42.75627231 408.3125 40.1875 C408.61671875 39.53136719 408.9209375 38.87523437 409.234375 38.19921875 C411.58077478 33.82097279 416.94202174 31.74687888 421.375 29.9375 C428.89962266 28.01631975 436.26905965 28.00442021 444 28 C445.10794922 27.98775391 446.21589844 27.97550781 447.35742188 27.96289062 C458.23354981 27.94382085 468.13318144 28.85502662 477.8125 34.0625 C478.48796875 34.40152344 479.1634375 34.74054687 479.859375 35.08984375 C483.63260596 37.04330781 486.38426786 39.057784 489.3125 42.1875 C491.94472962 43.44186187 491.94472962 43.44186187 494.3125 44.1875 C495.034375 43.61 495.75625 43.0325 496.5 42.4375 C497.8921875 41.32375 497.8921875 41.32375 499.3125 40.1875 C500.116875 39.48625 500.92125 38.785 501.75 38.0625 C508.2261287 33.32386925 515.92798412 33.02180324 523.6875 33.0625 C524.41710937 33.05863281 525.14671875 33.05476563 525.8984375 33.05078125 C532.06057448 33.06178507 538.09317461 33.21005741 543.6875 36.0625 C544.35523438 36.38992187 545.02296875 36.71734375 545.7109375 37.0546875 C547.3125 38.1875 547.3125 38.1875 548.3125 41.1875 C549.3025 41.5175 550.2925 41.8475 551.3125 42.1875 C551.6425 43.1775 551.9725 44.1675 552.3125 45.1875 C553.2715625 46.1465625 553.2715625 46.1465625 554.25 47.125 C556.3125 49.1875 556.3125 49.1875 556.97265625 51.22265625 C558.25523526 53.56085595 558.25523526 53.56085595 561.65625 54.09375 C563.03960165 54.3056192 564.42526386 54.50276715 565.8125 54.6875 C581.67461001 57.21889579 581.67461001 57.21889579 587.3125 63.1875 C590.55463791 65.48703821 590.55463791 65.48703821 594.3125 66.1875 C594.3125 66.8475 594.3125 67.5075 594.3125 68.1875 C594.9725 68.1875 595.6325 68.1875 596.3125 68.1875 C596.539375 67.465625 596.76625 66.74375 597 66 C598.56459743 62.64729122 600.67786173 60.75627231 603.3125 58.1875 C603.61671875 57.53136719 603.9209375 56.87523437 604.234375 56.19921875 C606.58077478 51.82097279 611.94202174 49.74687888 616.375 47.9375 C623.89962266 46.01631975 631.26905965 46.00442021 639 46 C640.10794922 45.98775391 641.21589844 45.97550781 642.35742188 45.96289062 C653.23354981 45.94382085 663.13318144 46.85502662 672.8125 52.0625 C673.48796875 52.40152344 674.1634375 52.74054687 674.859375 53.08984375 C678.62663911 55.04021867 681.41219488 57.03671398 684.3125 60.1875 C685.3025 60.8475 686.2925 61.5075 687.3125 62.1875 C687.57804687 61.47722656 687.84359375 60.76695313 688.1171875 60.03515625 C688.47039062 59.11605469 688.82359375 58.19695313 689.1875 57.25 C689.53554687 56.33347656 689.88359375 55.41695312 690.2421875 54.47265625 C691.3125 52.1875 691.3125 52.1875 693.3125 51.1875 C694.83304641 49.7330643 696.26764722 48.2380566 697.6640625 46.6640625 C702.01388192 42.76777875 708.72131673 43.00063929 714.25 43.25 C720.25323808 43.88110964 725.30169268 45.81544727 730.3125 49.1875 C730.6425 49.8475 730.9725 50.5075 731.3125 51.1875 C736.07241185 48.7354242 739.89079431 45.27974167 743.3125 41.1875 C743.3125 40.5275 743.3125 39.8675 743.3125 39.1875 C756.85272301 33.31155417 770.55035996 35.04739507 784.125 40.1875 C787.18553087 41.45174683 789.04878362 42.79099579 791.3125 45.1875 C794.55463791 47.48703821 794.55463791 47.48703821 798.3125 48.1875 C798.3125 48.8475 798.3125 49.5075 798.3125 50.1875 C798.9725 50.1875 799.6325 50.1875 800.3125 50.1875 C800.539375 49.465625 800.76625 48.74375 801 48 C802.56459743 44.64729122 804.67786173 42.75627231 807.3125 40.1875 C807.61671875 39.53136719 807.9209375 38.87523437 808.234375 38.19921875 C810.58077478 33.82097279 815.94202174 31.74687888 820.375 29.9375 C827.89962266 28.01631975 835.26905965 28.00442021 843 28 C844.10794922 27.98775391 845.21589844 27.97550781 846.35742188 27.96289062 C857.23354981 27.94382085 867.13318144 28.85502662 876.8125 34.0625 C877.48796875 34.40152344 878.1634375 34.74054687 878.859375 35.08984375 C882.63260596 37.04330781 885.38426786 39.057784 888.3125 42.1875 C890.94472962 43.44186187 890.94472962 43.44186187 893.3125 44.1875 C894.034375 43.61 894.75625 43.0325 895.5 42.4375 C896.428125 41.695 897.35625 40.9525 898.3125 40.1875 C899.116875 39.48625 899.92125 38.785 900.75 38.0625 C907.2261287 33.32386925 914.92798412 33.02180324 922.6875 33.0625 C923.41710938 33.05863281 924.14671875 33.05476563 924.8984375 33.05078125 C931.06057448 33.06178507 937.09317461 33.21005741 942.6875 36.0625 C943.35523438 36.38992187 944.02296875 36.71734375 944.7109375 37.0546875 C946.3125 38.1875 946.3125 38.1875 947.3125 41.1875 C948.3025 41.5175 949.2925 41.8475 950.3125 42.1875 C950.6425 43.1775 950.9725 44.1675 951.3125 45.1875 C953.0625 47.02083333 953.0625 47.02083333 955.3125 48.1875 C957.30677359 48.00196109 957.30677359 48.00196109 959.3125 47.1875 C965.14001334 45.81008776 970.91719058 46.00335651 976.875 46 C978.55045898 45.98163086 978.55045898 45.98163086 980.25976562 45.96289062 C991.1719467 45.94391292 1001.09990127 46.83712188 1010.8125 52.0625 C1011.48796875 52.40152344 1012.1634375 52.74054687 1012.859375 53.08984375 C1016.63260596 55.04330781 1019.38426786 57.057784 1022.3125 60.1875 C1024.94472962 61.44186187 1024.94472962 61.44186187 1027.3125 62.1875 C1028.034375 61.61 1028.75625 61.0325 1029.5 60.4375 C1030.428125 59.695 1031.35625 58.9525 1032.3125 58.1875 C1033.116875 57.48625 1033.92125 56.785 1034.75 56.0625 C1041.2261287 51.32386925 1048.92798412 51.02180324 1056.6875 51.0625 C1057.41710938 51.05863281 1058.14671875 51.05476563 1058.8984375 51.05078125 C1065.06057448 51.06178507 1071.09317461 51.21005741 1076.6875 54.0625 C1077.35523438 54.38992187 1078.02296875 54.71734375 1078.7109375 55.0546875 C1080.3125 56.1875 1080.3125 56.1875 1081.3125 59.1875 C1082.3025 59.5175 1083.2925 59.8475 1084.3125 60.1875 C1084.6425 61.1775 1084.9725 62.1675 1085.3125 63.1875 C1085.9725 63.785625 1086.6325 64.38375 1087.3125 65 C1091.31466084 69.37736342 1090.49502375 76.02453276 1090.5 81.6875 C1090.51224609 82.42097656 1090.52449219 83.15445313 1090.53710938 83.91015625 C1090.54910604 88.38091376 1090.10496213 92.0113777 1088.3125 96.1875 C1085.97916667 98.52083333 1083.64583333 100.85416667 1081.3125 103.1875 C1080.8175 103.765 1080.3225 104.3425 1079.8125 104.9375 C1076.75111236 107.48865637 1073.14299961 107.1875 1069.3125 107.1875 C1069.374375 108.54875 1069.374375 108.54875 1069.4375 109.9375 C1069.27242537 114.22944047 1068.31448845 116.18551155 1065.3125 119.1875 C1064.14374081 120.70372814 1062.97530767 122.22031372 1061.82421875 123.75 C1057.50942832 127.85295317 1052.11030372 127.54182399 1046.51953125 127.4453125 C1039.41875283 126.87448257 1033.31238378 125.01926835 1027.3125 121.1875 C1027.37050781 121.92613281 1027.42851563 122.66476563 1027.48828125 123.42578125 C1027.841634 131.37117033 1026.53027583 137.37515297 1022.3125 144.1875 C1021.6525 144.5175 1020.9925 144.8475 1020.3125 145.1875 C1019.6525 146.1775 1018.9925 147.1675 1018.3125 148.1875 C1017.33496356 149.20946992 1016.3319119 150.20729625 1015.3125 151.1875 C1014.77625 151.80625 1014.24 152.425 1013.6875 153.0625 C1003.40044901 162.26670352 990.84122546 163.43557697 977.625 163.5 C976.66319824 163.50555908 975.70139648 163.51111816 974.71044922 163.5168457 C968.37212105 163.45325589 962.47637912 162.65637148 956.3125 161.1875 C956.3125 160.5275 956.3125 159.8675 956.3125 159.1875 C955.3225 159.5175 954.3325 159.8475 953.3125 160.1875 C950.6484375 159.04296875 950.6484375 159.04296875 947.6875 157.375 C946.70523437 156.83230469 945.72296875 156.28960937 944.7109375 155.73046875 C942.3125 154.1875 942.3125 154.1875 941.3125 152.1875 C939.58980641 150.63750752 937.79895177 149.18792305 936.00390625 147.72265625 C934.3125 146.1875 934.3125 146.1875 932.3125 143.1875 C930.35523417 140.2299351 930.35523417 140.2299351 927.3125 138.1875 C923.82173289 138.63583319 923.82173289 138.63583319 921.296875 139.43359375 C914.46357502 141.15980696 907.31764539 141.55354266 900.3125 142.1875 C899.29929687 142.28675781 898.28609375 142.38601562 897.2421875 142.48828125 C890.86152531 142.83831758 886.48753765 140.86802247 881.3125 137.1875 C880.6525 136.5275 879.9925 135.8675 879.3125 135.1875 C878.73242188 135.59742188 878.15234375 136.00734375 877.5546875 136.4296875 C873.24266947 139.40398376 869.44972472 141.90319382 864.3125 143.1875 C863.69882568 143.35314453 863.08515137 143.51878906 862.45288086 143.68945312 C856.21678315 145.25153976 850.28383264 145.48826303 843.875 145.4375 C842.90240234 145.44523438 841.92980469 145.45296875 840.92773438 145.4609375 C834.50177171 145.44376726 828.55861122 144.69101903 822.3125 143.1875 C822.3125 142.5275 822.3125 141.8675 822.3125 141.1875 C821.3225 141.5175 820.3325 141.8475 819.3125 142.1875 C816.6484375 141.04296875 816.6484375 141.04296875 813.6875 139.375 C812.70523437 138.83230469 811.72296875 138.28960937 810.7109375 137.73046875 C808.3125 136.1875 808.3125 136.1875 807.3125 134.1875 C805.58980641 132.63750752 803.79895177 131.18792305 802.00390625 129.72265625 C800.3125 128.1875 800.3125 128.1875 798.3125 125.1875 C796.35523417 122.2299351 796.35523417 122.2299351 793.3125 120.1875 C789.82173289 120.63583319 789.82173289 120.63583319 787.296875 121.43359375 C780.46357502 123.15980696 773.31764539 123.55354266 766.3125 124.1875 C764.79269531 124.33638672 764.79269531 124.33638672 763.2421875 124.48828125 C756.86924218 124.83789424 752.35068147 123.09983086 747.3125 119.1875 C745.37899231 117.22286945 743.61657007 115.19105789 741.87109375 113.05859375 C739.90460046 110.69781609 737.89091159 108.8599832 735.3125 107.1875 C733.9925 107.1875 732.6725 107.1875 731.3125 107.1875 C731.374375 108.54875 731.374375 108.54875 731.4375 109.9375 C731.27242537 114.22944047 730.31448845 116.18551155 727.3125 119.1875 C726.14374081 120.70372814 724.97530767 122.22031372 723.82421875 123.75 C719.50942832 127.85295317 714.11030372 127.54182399 708.51953125 127.4453125 C701.41875283 126.87448257 695.31238378 125.01926835 689.3125 121.1875 C689.37050781 121.92613281 689.42851563 122.66476563 689.48828125 123.42578125 C689.841634 131.37117033 688.53027583 137.37515297 684.3125 144.1875 C683.6525 144.5175 682.9925 144.8475 682.3125 145.1875 C681.6525 146.1775 680.9925 147.1675 680.3125 148.1875 C679.33496356 149.20946992 678.3319119 150.20729625 677.3125 151.1875 C676.77625 151.80625 676.24 152.425 675.6875 153.0625 C665.40044901 162.26670352 652.84122546 163.43557697 639.625 163.5 C638.66319824 163.50555908 637.70139648 163.51111816 636.71044922 163.5168457 C630.37212105 163.45325589 624.47637912 162.65637148 618.3125 161.1875 C618.3125 160.5275 618.3125 159.8675 618.3125 159.1875 C617.3225 159.5175 616.3325 159.8475 615.3125 160.1875 C612.6484375 159.04296875 612.6484375 159.04296875 609.6875 157.375 C608.70523437 156.83230469 607.72296875 156.28960937 606.7109375 155.73046875 C604.3125 154.1875 604.3125 154.1875 603.3125 152.1875 C601.58980641 150.63750752 599.79895177 149.18792305 598.00390625 147.72265625 C596.3125 146.1875 596.3125 146.1875 594.3125 143.1875 C592.35523417 140.2299351 592.35523417 140.2299351 589.3125 138.1875 C585.82173289 138.63583319 585.82173289 138.63583319 583.296875 139.43359375 C576.46357502 141.15980696 569.31764539 141.55354266 562.3125 142.1875 C561.29929687 142.28675781 560.28609375 142.38601562 559.2421875 142.48828125 C552.86590886 142.8380771 548.35553974 141.09632448 543.3125 137.1875 C541.34333885 135.22223048 539.56184269 133.20144443 537.8125 131.0390625 C536.26705719 129.04818935 536.26705719 129.04818935 534 127 C530.84108779 123.60709429 530.3125 120.76103168 530.3125 116.1875 C529.5918335 116.19273682 528.87116699 116.19797363 528.12866211 116.20336914 C524.83578375 116.22426875 521.54291941 116.23720131 518.25 116.25 C516.5494043 116.26256836 516.5494043 116.26256836 514.81445312 116.27539062 C507.7457209 116.29599917 501.15697177 116.1039521 494.3125 114.1875 C493.6628125 116.04375 493.6628125 116.04375 493 117.9375 C491.80421787 121.12625233 490.54559217 123.5822258 488.3125 126.1875 C487.8175 126.868125 487.3225 127.54875 486.8125 128.25 C485.40910155 130.062723 483.96388707 131.60216841 482.3125 133.1875 C481.77625 133.80625 481.24 134.425 480.6875 135.0625 C470.40044901 144.26670352 457.84122546 145.43557697 444.625 145.5 C443.66319824 145.50555908 442.70139648 145.51111816 441.71044922 145.5168457 C435.37212105 145.45325589 429.47637912 144.65637148 423.3125 143.1875 C423.3125 142.5275 423.3125 141.8675 423.3125 141.1875 C422.3225 141.5175 421.3325 141.8475 420.3125 142.1875 C417.6484375 141.04296875 417.6484375 141.04296875 414.6875 139.375 C413.70523438 138.83230469 412.72296875 138.28960937 411.7109375 137.73046875 C409.3125 136.1875 409.3125 136.1875 408.3125 134.1875 C406.58980641 132.63750752 404.79895177 131.18792305 403.00390625 129.72265625 C401.3125 128.1875 401.3125 128.1875 399.3125 125.1875 C397.35523417 122.2299351 397.35523417 122.2299351 394.3125 120.1875 C390.82173289 120.63583319 390.82173289 120.63583319 388.296875 121.43359375 C381.46357502 123.15980696 374.31764539 123.55354266 367.3125 124.1875 C365.79269531 124.33638672 365.79269531 124.33638672 364.2421875 124.48828125 C357.7234468 124.84589242 353.70777116 122.65139004 348.3125 119.1875 C345.23248221 117.36388551 343.30801066 117.02139635 339.75 117.25 C331.89464389 117.41268489 324.91588434 115.41983071 318.3125 111.1875 C318.37050781 111.92613281 318.42851563 112.66476563 318.48828125 113.42578125 C318.841634 121.37117033 317.53027583 127.37515297 313.3125 134.1875 C312.6525 134.5175 311.9925 134.8475 311.3125 135.1875 C310.6525 136.1775 309.9925 137.1675 309.3125 138.1875 C308.33496356 139.20946992 307.3319119 140.20729625 306.3125 141.1875 C305.77625 141.80625 305.24 142.425 304.6875 143.0625 C294.40044901 152.26670352 281.84122546 153.43557697 268.625 153.5 C267.66319824 153.50555908 266.70139648 153.51111816 265.71044922 153.5168457 C259.37212105 153.45325589 253.47637912 152.65637148 247.3125 151.1875 C247.3125 150.5275 247.3125 149.8675 247.3125 149.1875 C246.3225 149.5175 245.3325 149.8475 244.3125 150.1875 C241.6484375 149.04296875 241.6484375 149.04296875 238.6875 147.375 C237.70523438 146.83230469 236.72296875 146.28960937 235.7109375 145.73046875 C233.3125 144.1875 233.3125 144.1875 232.3125 142.1875 C230.58980641 140.63750752 228.79895177 139.18792305 227.00390625 137.72265625 C225.3125 136.1875 225.3125 136.1875 223.3125 133.1875 C221.35523417 130.2299351 221.35523417 130.2299351 218.3125 128.1875 C214.82173289 128.63583319 214.82173289 128.63583319 212.296875 129.43359375 C205.46357502 131.15980696 198.31764539 131.55354266 191.3125 132.1875 C190.29929687 132.28675781 189.28609375 132.38601562 188.2421875 132.48828125 C181.86590886 132.8380771 177.35553974 131.09632448 172.3125 127.1875 C170.34333885 125.22223048 168.56184269 123.20144443 166.8125 121.0390625 C165.26705719 119.04818935 165.26705719 119.04818935 163 117 C160.5986526 114.42077502 159.3125 111.73670335 159.3125 108.1875 C158.6525 107.8575 157.9925 107.5275 157.3125 107.1875 C157.374375 108.54875 157.374375 108.54875 157.4375 109.9375 C157.27242537 114.22944047 156.31448845 116.18551155 153.3125 119.1875 C152.14374081 120.70372814 150.97530767 122.22031372 149.82421875 123.75 C145.50942832 127.85295317 140.11030372 127.54182399 134.51953125 127.4453125 C127.41875283 126.87448257 121.31238378 125.01926835 115.3125 121.1875 C115.37050781 121.92613281 115.42851563 122.66476563 115.48828125 123.42578125 C115.841634 131.37117033 114.53027583 137.37515297 110.3125 144.1875 C109.6525 144.5175 108.9925 144.8475 108.3125 145.1875 C107.6525 146.1775 106.9925 147.1675 106.3125 148.1875 C105.33496356 149.20946992 104.3319119 150.20729625 103.3125 151.1875 C102.77625 151.80625 102.24 152.425 101.6875 153.0625 C91.40044901 162.26670352 78.84122546 163.43557697 65.625 163.5 C64.66319824 163.50555908 63.70139648 163.51111816 62.71044922 163.5168457 C56.37212105 163.45325589 50.47637912 162.65637148 44.3125 161.1875 C44.3125 160.5275 44.3125 159.8675 44.3125 159.1875 C43.3225 159.5175 42.3325 159.8475 41.3125 160.1875 C38.6484375 159.04296875 38.6484375 159.04296875 35.6875 157.375 C34.70523437 156.83230469 33.72296875 156.28960937 32.7109375 155.73046875 C30.3125 154.1875 30.3125 154.1875 29.3125 152.1875 C27.58980641 150.63750752 25.79895177 149.18792305 24.00390625 147.72265625 C22.3125 146.1875 22.3125 146.1875 20.3125 143.1875 C18.35523417 140.2299351 18.35523417 140.2299351 15.3125 138.1875 C11.82173289 138.63583319 11.82173289 138.63583319 9.296875 139.43359375 C2.46357502 141.15980696 -4.68235461 141.55354266 -11.6875 142.1875 C-12.70070313 142.28675781 -13.71390625 142.38601562 -14.7578125 142.48828125 C-21.13409114 142.8380771 -25.64446026 141.09632448 -30.6875 137.1875 C-32.65666115 135.22223048 -34.43815731 133.20144443 -36.1875 131.0390625 C-37.73294281 129.04818935 -37.73294281 129.04818935 -40 127 C-43.15891221 123.60709429 -43.6875 120.76103168 -43.6875 116.1875 C-46.64668198 116.30108476 -49.60426783 116.42783086 -52.5625 116.5625 C-53.40425781 116.5934375 -54.24601562 116.624375 -55.11328125 116.65625 C-55.91894531 116.69492188 -56.72460938 116.73359375 -57.5546875 116.7734375 C-58.29831543 116.8048584 -59.04194336 116.8362793 -59.80810547 116.86865234 C-63.41842359 117.4811589 -65.08091979 120.96613095 -67.17578125 123.75 C-71.49057168 127.85295317 -76.88969628 127.54182399 -82.48046875 127.4453125 C-89.58124717 126.87448257 -95.68761622 125.01926835 -101.6875 121.1875 C-101.62949219 121.92613281 -101.57148438 122.66476563 -101.51171875 123.42578125 C-101.158366 131.37117033 -102.46972417 137.37515297 -106.6875 144.1875 C-107.3475 144.5175 -108.0075 144.8475 -108.6875 145.1875 C-109.3475 146.1775 -110.0075 147.1675 -110.6875 148.1875 C-111.66503644 149.20946992 -112.6680881 150.20729625 -113.6875 151.1875 C-114.22375 151.80625 -114.76 152.425 -115.3125 153.0625 C-125.59955099 162.26670352 -138.15877454 163.43557697 -151.375 163.5 C-152.33680176 163.50555908 -153.29860352 163.51111816 -154.28955078 163.5168457 C-160.62787895 163.45325589 -166.52362088 162.65637148 -172.6875 161.1875 C-172.6875 160.5275 -172.6875 159.8675 -172.6875 159.1875 C-173.6775 159.5175 -174.6675 159.8475 -175.6875 160.1875 C-178.3515625 159.04296875 -178.3515625 159.04296875 -181.3125 157.375 C-182.29476563 156.83230469 -183.27703125 156.28960937 -184.2890625 155.73046875 C-186.6875 154.1875 -186.6875 154.1875 -187.6875 152.1875 C-189.41019359 150.63750752 -191.20104823 149.18792305 -192.99609375 147.72265625 C-194.6875 146.1875 -194.6875 146.1875 -196.6875 143.1875 C-198.64476583 140.2299351 -198.64476583 140.2299351 -201.6875 138.1875 C-205.17826711 138.63583319 -205.17826711 138.63583319 -207.703125 139.43359375 C-214.53642498 141.15980696 -221.68235461 141.55354266 -228.6875 142.1875 C-229.70070312 142.28675781 -230.71390625 142.38601562 -231.7578125 142.48828125 C-238.12321266 142.83748032 -242.64057619 141.07122804 -247.6875 137.1875 C-249.8912552 134.98828863 -251.84471663 132.69513071 -253.6875 130.1875 C-258.8366997 132.61697627 -263.75168252 135.12606011 -268.4375 138.375 C-271.79789111 140.67205057 -274.698595 142.19027375 -278.6875 143.1875 C-279.60801147 143.4359668 -279.60801147 143.4359668 -280.54711914 143.68945312 C-286.78321685 145.25153976 -292.71616736 145.48826303 -299.125 145.4375 C-300.09759766 145.44523438 -301.07019531 145.45296875 -302.07226562 145.4609375 C-308.49822829 145.44376726 -314.44138878 144.69101903 -320.6875 143.1875 C-320.6875 142.5275 -320.6875 141.8675 -320.6875 141.1875 C-321.6775 141.5175 -322.6675 141.8475 -323.6875 142.1875 C-326.3515625 141.04296875 -326.3515625 141.04296875 -329.3125 139.375 C-330.78589844 138.56095703 -330.78589844 138.56095703 -332.2890625 137.73046875 C-334.6875 136.1875 -334.6875 136.1875 -335.6875 134.1875 C-337.41019359 132.63750752 -339.20104823 131.18792305 -340.99609375 129.72265625 C-342.6875 128.1875 -342.6875 128.1875 -344.6875 125.1875 C-346.64476583 122.2299351 -346.64476583 122.2299351 -349.6875 120.1875 C-353.17826711 120.63583319 -353.17826711 120.63583319 -355.703125 121.43359375 C-362.53642498 123.15980696 -369.68235461 123.55354266 -376.6875 124.1875 C-378.20730469 124.33638672 -378.20730469 124.33638672 -379.7578125 124.48828125 C-386.13409114 124.8380771 -390.64446026 123.09632448 -395.6875 119.1875 C-397.65666115 117.22223048 -399.43815731 115.20144443 -401.1875 113.0390625 C-402.73294281 111.04818935 -402.73294281 111.04818935 -405 109 C-408.15891221 105.60709429 -408.6875 102.76103168 -408.6875 98.1875 C-409.4081665 98.19273682 -410.12883301 98.19797363 -410.87133789 98.20336914 C-414.16421625 98.22426875 -417.45708059 98.23720131 -420.75 98.25 C-422.4505957 98.26256836 -422.4505957 98.26256836 -424.18554688 98.27539062 C-441.47395886 98.32579416 -441.47395886 98.32579416 -448.58203125 91.3203125 C-455.03546744 84.35428158 -454.88905599 78.46041736 -454.9375 69.25 C-454.958125 68.27353516 -454.97875 67.29707031 -455 66.29101562 C-455.02950022 60.85191194 -454.84865986 56.84483989 -451.6875 52.1875 C-450.6975 51.6925 -450.6975 51.6925 -449.6875 51.1875 C-448.13883062 49.70616407 -446.69710408 48.19885027 -445.3125 46.5625 C-442.45195448 44.14203841 -439.31685494 44.1875 -435.6875 44.1875 C-435.3575 43.5275 -435.0275 42.8675 -434.6875 42.1875 C-433.37620078 40.83249081 -432.04058313 39.50078657 -430.6875 38.1875 C-430.22988281 37.67574219 -429.77226562 37.16398437 -429.30078125 36.63671875 C-424.93064203 32.71100046 -418.16486273 33.01797565 -412.625 33.3125 C-408.67937519 33.70108426 -405.98723756 34.35677102 -402.625 36.4375 C-399.08707489 38.47718429 -396.87978286 38.1926066 -392.9375 37.25 C-388.45212612 35.7713733 -386.23547873 34.26426597 -383.6875 30.1875 C-378.70135361 25.76994925 -372.36599192 25.14662787 -365.875 25.21875 C-363.12100448 25.43781783 -360.41888398 25.77461637 -357.6875 26.1875 C-356.841875 26.3009375 -355.99625 26.414375 -355.125 26.53125 C-348.12499149 27.66875138 -340.79526609 30.07973391 -335.6875 35.1875 C-335.0275 35.5175 -334.3675 35.8475 -333.6875 36.1875 C-331.89802965 35.25291872 -331.89802965 35.25291872 -330 33.875 C-327.25904189 32.05936534 -324.95043251 30.82293334 -321.75 30.0625 C-320.2340625 29.629375 -320.2340625 29.629375 -318.6875 29.1875 C-318.3575 28.1975 -318.0275 27.2075 -317.6875 26.1875 C-307.67221218 18.13224464 -296.25737095 18.00700822 -284 18 C-282.89205078 17.98775391 -281.78410156 17.97550781 -280.64257812 17.96289062 C-269.76645019 17.94382085 -259.86681856 18.85502662 -250.1875 24.0625 C-249.17429688 24.57103516 -249.17429688 24.57103516 -248.140625 25.08984375 C-244.35882802 27.04774258 -241.64966046 29.0839637 -238.6875 32.1875 C-235.73388827 33.26325878 -235.73388827 33.26325878 -232.6875 33.1875 C-230.53145635 32.0503419 -230.53145635 32.0503419 -228.6875 30.1875 C-221.41547532 23.87232067 -213.66922617 23.01342626 -204.3125 23.0625 C-203.58289063 23.05863281 -202.85328125 23.05476563 -202.1015625 23.05078125 C-195.93942552 23.06178507 -189.90682539 23.21005741 -184.3125 26.0625 C-183.64476562 26.38992187 -182.97703125 26.71734375 -182.2890625 27.0546875 C-180.6875 28.1875 -180.6875 28.1875 -179.6875 31.1875 C-178.6975 31.5175 -177.7075 31.8475 -176.6875 32.1875 C-176.3575 33.1775 -176.0275 34.1675 -175.6875 35.1875 C-175.048125 35.744375 -174.40875 36.30125 -173.75 36.875 C-170.86124312 40.11390923 -170.53325411 42.95872945 -169.6875 47.1875 C-169.06875 47.0225 -168.45 46.8575 -167.8125 46.6875 C-163.43279271 45.98674683 -159.11321011 46.11015749 -154.6875 46.1875 C-154.72230469 45.10210937 -154.75710938 44.01671875 -154.79296875 42.8984375 C-154.82112388 41.45314058 -154.84842219 40.00782679 -154.875 38.5625 C-154.91270508 37.49322266 -154.91270508 37.49322266 -154.95117188 36.40234375 C-155.01741312 31.58881308 -154.34193674 28.36518494 -151.6875 24.1875 C-151.0275 23.8575 -150.3675 23.5275 -149.6875 23.1875 C-148.16695359 21.7330643 -146.73235278 20.2380566 -145.3359375 18.6640625 C-140.98611808 14.76777875 -134.27868327 15.00063929 -128.75 15.25 C-122.74676192 15.88110964 -117.69830732 17.81544727 -112.6875 21.1875 C-112.3575 21.8475 -112.0275 22.5075 -111.6875 23.1875 C-106.92758815 20.7354242 -103.10920569 17.27974167 -99.6875 13.1875 C-99.6875 12.5275 -99.6875 11.8675 -99.6875 11.1875 C-86.14727699 5.31155417 -72.44964004 7.04739507 -58.875 12.1875 C-55.81446913 13.45174683 -53.95121638 14.79099579 -51.6875 17.1875 C-48.44536209 19.48703821 -48.44536209 19.48703821 -44.6875 20.1875 C-44.6875 20.8475 -44.6875 21.5075 -44.6875 22.1875 C-44.0275 22.1875 -43.3675 22.1875 -42.6875 22.1875 C-42.3471875 21.1046875 -42.3471875 21.1046875 -42 20 C-40.43540257 16.64729122 -38.32213827 14.75627231 -35.6875 12.1875 C-35.38328125 11.53136719 -35.0790625 10.87523437 -34.765625 10.19921875 C-32.41922522 5.82097279 -27.05797826 3.74687888 -22.625 1.9375 C-15.10037734 0.01631975 -7.73094035 0.00442021 0 0 Z " fill="#D5EBE9" transform="translate(454.6875,-0.1875)"/>
<path d="M0 0 C1.83610184 1.02701343 1.83610184 1.02701343 4.69140625 0.5390625 C5.35140625 0.2915625 6.01140625 0.0440625 6.69140625 -0.2109375 C3.43259596 3.69963484 0.09977049 7.49836252 -3.43359375 11.1640625 C-4.07554688 11.83179687 -4.7175 12.49953125 -5.37890625 13.1875 C-7.47181334 14.92452815 -8.60708756 15.57482313 -11.30859375 15.7890625 C-13.4140625 15.08203125 -13.4140625 15.08203125 -15.49609375 13.9765625 C-16.19089844 13.61949219 -16.88570312 13.26242188 -17.6015625 12.89453125 C-19.30859375 11.7890625 -19.30859375 11.7890625 -20.30859375 9.7890625 C-22.84018035 9.15104414 -25.30698877 8.62218882 -27.87109375 8.1640625 C-28.9374707 7.96296875 -28.9374707 7.96296875 -30.02539062 7.7578125 C-31.78501928 7.42714403 -33.54663923 7.10710483 -35.30859375 6.7890625 C-34.04710571 4.26608641 -32.32872489 2.74977802 -30.30859375 0.7890625 C-29.85097656 0.27730469 -29.39335937 -0.23445313 -28.921875 -0.76171875 C-21.55162473 -7.38245205 -7.6485157 -4.43901328 0 0 Z " fill="#C8DBDA" transform="translate(54.30859375,37.2109375)"/>
<path d="M0 0 C1.01964844 0.07863281 2.03929687 0.15726563 3.08984375 0.23828125 C6.02089664 0.68121303 8.36983048 1.47257545 11.0625 2.6875 C11.0625 3.3475 11.0625 4.0075 11.0625 4.6875 C10.4025 4.6875 9.7425 4.6875 9.0625 4.6875 C8.794375 5.265 8.52625 5.8425 8.25 6.4375 C7.04530141 8.7200868 5.65451885 10.6612942 4.0625 12.6875 C-0.33500672 12.18009538 -2.80698922 9.60456686 -5.9375 6.6875 C-5.9375 6.0275 -5.9375 5.3675 -5.9375 4.6875 C-6.9275 4.6875 -7.9175 4.6875 -8.9375 4.6875 C-9.2675 3.3675 -9.5975 2.0475 -9.9375 0.6875 C-6.49664806 -0.40994199 -3.58211319 -0.30265017 0 0 Z " fill="#CBDDDC" transform="translate(769.9375,43.3125)"/>
<path d="M0 0 C4.50802601 1.25805377 7.4912812 2.90407165 11 6 C9.02 6.99 9.02 6.99 7 8 C5.83035398 6.8572081 4.66435444 5.71068285 3.5 4.5625 C2.8503125 3.92441406 2.200625 3.28632812 1.53125 2.62890625 C0 1 0 1 0 0 Z " fill="#A3AEAD" transform="translate(561,59)"/>
<path d="M0 0 C4.50802601 1.25805377 7.4912812 2.90407165 11 6 C9.02 6.99 9.02 6.99 7 8 C5.83035398 6.8572081 4.66435444 5.71068285 3.5 4.5625 C2.8503125 3.92441406 2.200625 3.28632812 1.53125 2.62890625 C0 1 0 1 0 0 Z " fill="#A9B5B4" transform="translate(1473,59)"/>
<path d="M0 0 C0.928125 0.33 1.85625 0.66 2.8125 1 C5.92029291 2.14967004 5.92029291 2.14967004 9 2 C9 3.65 9 5.3 9 7 C6 7 6 7 4.39453125 5.46875 C3.87246094 4.8190625 3.35039063 4.169375 2.8125 3.5 C2.28269531 2.8503125 1.75289062 2.200625 1.20703125 1.53125 C0.80871094 1.0259375 0.41039062 0.520625 0 0 Z " fill="#AAB5B4" transform="translate(1135,59)"/>
<path d="M0 0 C4.50802601 1.25805377 7.4912812 2.90407165 11 6 C9.02 6.99 9.02 6.99 7 8 C5.83035398 6.8572081 4.66435444 5.71068285 3.5 4.5625 C2.8503125 3.92441406 2.200625 3.28632812 1.53125 2.62890625 C0 1 0 1 0 0 Z " fill="#A9B5B4" transform="translate(1339,41)"/>
<path d="M0 0 C4.50802601 1.25805377 7.4912812 2.90407165 11 6 C9.02 6.99 9.02 6.99 7 8 C5.83035398 6.8572081 4.66435444 5.71068285 3.5 4.5625 C2.8503125 3.92441406 2.200625 3.28632812 1.53125 2.62890625 C0 1 0 1 0 0 Z " fill="#A9B5B4" transform="translate(940,41)"/>
<path d="M0 0 C4.50802601 1.25805377 7.4912812 2.90407165 11 6 C9.02 6.99 9.02 6.99 7 8 C5.83035398 6.8572081 4.66435444 5.71068285 3.5 4.5625 C2.8503125 3.92441406 2.200625 3.28632813 1.53125 2.62890625 C0 1 0 1 0 0 Z " fill="#A9B5B4" transform="translate(496,13)"/>
<path d="M0 0 C0.33 0.66 0.66 1.32 1 2 C1.99 1.67 2.98 1.34 4 1 C4 1.66 4 2.32 4 3 C-1.2734375 6.22265625 -1.2734375 6.22265625 -3 7 C-3.66 6.67 -4.32 6.34 -5 6 C-2.25 1.125 -2.25 1.125 0 0 Z " fill="#656C6B" transform="translate(196,127)"/>
<path d="M0 0 C3.73544615 2.49029743 6.56369498 4.69108494 8 9 C4.20620942 7.50958227 2.31656242 5.30937488 0 2 C0 1.34 0 0.68 0 0 Z " fill="#9FAAA9" transform="translate(1532,55)"/>
<path d="M0 0 C3.73544615 2.49029743 6.56369498 4.69108494 8 9 C4.20620942 7.50958227 2.31656242 5.30937488 0 2 C0 1.34 0 0.68 0 0 Z " fill="#9FAAA9" transform="translate(1398,37)"/>
<path d="M0 0 C3.73544615 2.49029743 6.56369498 4.69108494 8 9 C4.20620942 7.50958227 2.31656242 5.30937488 0 2 C0 1.34 0 0.68 0 0 Z " fill="#9FAAA9" transform="translate(999,37)"/>
<path d="M0 0 C3.73544615 2.49029743 6.56369498 4.69108494 8 9 C4.20620942 7.50958227 2.31656242 5.30937488 0 2 C0 1.34 0 0.68 0 0 Z " fill="#9FAAA9" transform="translate(271,27)"/>
<path d="M0 0 C3.73544615 2.49029743 6.56369498 4.69108494 8 9 C4.20620942 7.50958227 2.31656242 5.30937488 0 2 C0 1.34 0 0.68 0 0 Z " fill="#9FAAA9" transform="translate(555,9)"/>
<path d="M0 0 C4.6302521 1.46218487 4.6302521 1.46218487 6.375 4 C7 6 7 6 6 8 C5.566875 7.401875 5.13375 6.80375 4.6875 6.1875 C3.08264816 4.01066428 3.08264816 4.01066428 1.3125 2.3125 C0.879375 1.879375 0.44625 1.44625 0 1 C0 0.67 0 0.34 0 0 Z " fill="#7C8584" transform="translate(1385,140)"/>
<path d="M0 0 C4.6302521 1.46218487 4.6302521 1.46218487 6.375 4 C7 6 7 6 6 8 C5.566875 7.401875 5.13375 6.80375 4.6875 6.1875 C3.08264816 4.01066428 3.08264816 4.01066428 1.3125 2.3125 C0.879375 1.879375 0.44625 1.44625 0 1 C0 0.67 0 0.34 0 0 Z " fill="#7C8584" transform="translate(1047,140)"/>
<path d="M0 0 C4.6302521 1.46218487 4.6302521 1.46218487 6.375 4 C7 6 7 6 6 8 C5.566875 7.401875 5.13375 6.80375 4.6875 6.1875 C3.08264816 4.01066428 3.08264816 4.01066428 1.3125 2.3125 C0.879375 1.879375 0.44625 1.44625 0 1 C0 0.67 0 0.34 0 0 Z " fill="#7C8584" transform="translate(473,140)"/>
<path d="M0 0 C4.6302521 1.46218487 4.6302521 1.46218487 6.375 4 C7 6 7 6 6 8 C5.566875 7.401875 5.13375 6.80375 4.6875 6.1875 C3.08264816 4.01066428 3.08264816 4.01066428 1.3125 2.3125 C0.879375 1.879375 0.44625 1.44625 0 1 C0 0.67 0 0.34 0 0 Z " fill="#7C8584" transform="translate(256,140)"/>
<path d="M0 0 C4.6302521 1.46218487 4.6302521 1.46218487 6.375 4 C7 6 7 6 6 8 C5.566875 7.401875 5.13375 6.80375 4.6875 6.1875 C3.08264816 4.01066428 3.08264816 4.01066428 1.3125 2.3125 C0.879375 1.879375 0.44625 1.44625 0 1 C0 0.67 0 0.34 0 0 Z " fill="#7C8584" transform="translate(676,130)"/>
<path d="M0 0 C4.6302521 1.46218487 4.6302521 1.46218487 6.375 4 C7 6 7 6 6 8 C5.566875 7.401875 5.13375 6.80375 4.6875 6.1875 C3.08264816 4.01066428 3.08264816 4.01066428 1.3125 2.3125 C0.879375 1.879375 0.44625 1.44625 0 1 C0 0.67 0 0.34 0 0 Z " fill="#7C8584" transform="translate(1251,122)"/>
<path d="M0 0 C4.6302521 1.46218487 4.6302521 1.46218487 6.375 4 C7 6 7 6 6 8 C5.566875 7.401875 5.13375 6.80375 4.6875 6.1875 C3.08264816 4.01066428 3.08264816 4.01066428 1.3125 2.3125 C0.879375 1.879375 0.44625 1.44625 0 1 C0 0.67 0 0.34 0 0 Z " fill="#7C8584" transform="translate(852,122)"/>
<path d="M0 0 C4.6302521 1.46218487 4.6302521 1.46218487 6.375 4 C7 6 7 6 6 8 C5.566875 7.401875 5.13375 6.80375 4.6875 6.1875 C3.08264816 4.01066428 3.08264816 4.01066428 1.3125 2.3125 C0.879375 1.879375 0.44625 1.44625 0 1 C0 0.67 0 0.34 0 0 Z " fill="#7C8584" transform="translate(108,122)"/>
<path d="" fill="#000000" transform="translate(0,0)"/>
<path d="" fill="#000000" transform="translate(0,0)"/>
<path d="" fill="#000000" transform="translate(0,0)"/>
<path d="" fill="#000000" transform="translate(0,0)"/>
<path d="" fill="#000000" transform="translate(0,0)"/>
<path d="" fill="#000000" transform="translate(0,0)"/>
<path d="" fill="#000000" transform="translate(0,0)"/>
<path d="" fill="#000000" transform="translate(0,0)"/>
<path d="" fill="#000000" transform="translate(0,0)"/>
<path d="" fill="#000000" transform="translate(0,0)"/>
<path d="" fill="#000000" transform="translate(0,0)"/>
<path d="" fill="#000000" transform="translate(0,0)"/>
<path d="" fill="#000000" transform="translate(0,0)"/>
<path d="" fill="#000000" transform="translate(0,0)"/>
<path d="" fill="#000000" transform="translate(0,0)"/>
<path d="" fill="#000000" transform="translate(0,0)"/>
<path d="" fill="#000000" transform="translate(0,0)"/>
<path d="" fill="#000000" transform="translate(0,0)"/>
<path d="" fill="#000000" transform="translate(0,0)"/>
<path d="" fill="#000000" transform="translate(0,0)"/>
<path d="" fill="#000000" transform="translate(0,0)"/>
<path d="" fill="#000000" transform="translate(0,0)"/>
<path d="" fill="#000000" transform="translate(0,0)"/>
<path d="" fill="#000000" transform="translate(0,0)"/>
<path d="" fill="#000000" transform="translate(0,0)"/>
<path d="" fill="#000000" transform="translate(0,0)"/>
<path d="" fill="#000000" transform="translate(0,0)"/>
<path d="" fill="#000000" transform="translate(0,0)"/>
<path d="" fill="#000000" transform="translate(0,0)"/>
<path d="" fill="#000000" transform="translate(0,0)"/>
<path d="" fill="#000000" transform="translate(0,0)"/>
<path d="" fill="#000000" transform="translate(0,0)"/>
<path d="" fill="#000000" transform="translate(0,0)"/>
<path d="" fill="#000000" transform="translate(0,0)"/>
<path d="" fill="#000000" transform="translate(0,0)"/>
<path d="" fill="#000000" transform="translate(0,0)"/>
<path d="" fill="#000000" transform="translate(0,0)"/>
<path d="" fill="#000000" transform="translate(0,0)"/>
<path d="" fill="#000000" transform="translate(0,0)"/>
<path d="" fill="#000000" transform="translate(0,0)"/>
<path d="" fill="#000000" transform="translate(0,0)"/>
<path d="" fill="#000000" transform="translate(0,0)"/>
<path d="" fill="#000000" transform="translate(0,0)"/>
<path d="" fill="#000000" transform="translate(0,0)"/>
<path d="" fill="#000000" transform="translate(0,0)"/>
<path d="" fill="#000000" transform="translate(0,0)"/>
<path d="" fill="#000000" transform="translate(0,0)"/>
<path d="" fill="#000000" transform="translate(0,0)"/>
<path d="" fill="#000000" transform="translate(0,0)"/>
<path d="" fill="#000000" transform="translate(0,0)"/>
<path d="" fill="#000000" transform="translate(0,0)"/>
<path d="" fill="#000000" transform="translate(0,0)"/>
<path d="" fill="#000000" transform="translate(0,0)"/>
<path d="" fill="#000000" transform="translate(0,0)"/>
<path d="" fill="#000000" transform="translate(0,0)"/>
<path d="" fill="#000000" transform="translate(0,0)"/>
<path d="" fill="#000000" transform="translate(0,0)"/>
<path d="" fill="#000000" transform="translate(0,0)"/>
<path d="" fill="#000000" transform="translate(0,0)"/>
<path d="" fill="#000000" transform="translate(0,0)"/>
<path d="" fill="#000000" transform="translate(0,0)"/>
<path d="" fill="#000000" transform="translate(0,0)"/>
<path d="" fill="#000000" transform="translate(0,0)"/>
<path d="" fill="#000000" transform="translate(0,0)"/>
<path d="" fill="#000000" transform="translate(0,0)"/>
<path d="" fill="#000000" transform="translate(0,0)"/>
<path d="" fill="#000000" transform="translate(0,0)"/>
<path d="" fill="#000000" transform="translate(0,0)"/>
<path d="" fill="#000000" transform="translate(0,0)"/>
<path d="" fill="#000000" transform="translate(0,0)"/>
<path d="" fill="#000000" transform="translate(0,0)"/>
<path d="" fill="#000000" transform="translate(0,0)"/>
<path d="" fill="#000000" transform="translate(0,0)"/>
<path d="" fill="#000000" transform="translate(0,0)"/>
<path d="" fill="#000000" transform="translate(0,0)"/>
<path d="" fill="#000000" transform="translate(0,0)"/>
<path d="" fill="#000000" transform="translate(0,0)"/>
<path d="" fill="#000000" transform="translate(0,0)"/>
<path d="" fill="#000000" transform="translate(0,0)"/>
<path d="" fill="#000000" transform="translate(0,0)"/>
<path d="" fill="#000000" transform="translate(0,0)"/>
<path d="" fill="#000000" transform="translate(0,0)"/>
<path d="" fill="#000000" transform="translate(0,0)"/>
<path d="" fill="#000000" transform="translate(0,0)"/>
<path d="" fill="#000000" transform="translate(0,0)"/>
<path d="" fill="#000000" transform="translate(0,0)"/>
<path d="" fill="#000000" transform="translate(0,0)"/>
<path d="" fill="#000000" transform="translate(0,0)"/>
<path d="" fill="#000000" transform="translate(0,0)"/>
<path d="" fill="#000000" transform="translate(0,0)"/>
<path d="" fill="#000000" transform="translate(0,0)"/>
<path d="" fill="#000000" transform="translate(0,0)"/>
<path d="" fill="#000000" transform="translate(0,0)"/>
<path d="" fill="#000000" transform="translate(0,0)"/>
<path d="" fill="#000000" transform="translate(0,0)"/>
<path d="" fill="#000000" transform="translate(0,0)"/>
<path d="" fill="#000000" transform="translate(0,0)"/>
<path d="" fill="#000000" transform="translate(0,0)"/>
<path d="" fill="#000000" transform="translate(0,0)"/>
<path d="" fill="#000000" transform="translate(0,0)"/>
<path d="" fill="#000000" transform="translate(0,0)"/>
<path d="" fill="#000000" transform="translate(0,0)"/>
<path d="" fill="#000000" transform="translate(0,0)"/>
<path d="" fill="#000000" transform="translate(0,0)"/>
<path d="" fill="#000000" transform="translate(0,0)"/>
<path d="" fill="#000000" transform="translate(0,0)"/>
<path d="" fill="#000000" transform="translate(0,0)"/>
<path d="" fill="#000000" transform="translate(0,0)"/>
<path d="" fill="#000000" transform="translate(0,0)"/>
<path d="" fill="#000000" transform="translate(0,0)"/>
<path d="" fill="#000000" transform="translate(0,0)"/>
<path d="" fill="#000000" transform="translate(0,0)"/>
<path d="" fill="#000000" transform="translate(0,0)"/>
<path d="" fill="#000000" transform="translate(0,0)"/>
<path d="" fill="#000000" transform="translate(0,0)"/>
<path d="" fill="#000000" transform="translate(0,0)"/>
<path d="" fill="#000000" transform="translate(0,0)"/>
<path d="" fill="#000000" transform="translate(0,0)"/>
<path d="" fill="#000000" transform="translate(0,0)"/>
<path d="" fill="#000000" transform="translate(0,0)"/>
<path d="" fill="#000000" transform="translate(0,0)"/>
<path d="" fill="#000000" transform="translate(0,0)"/>
<path d="" fill="#000000" transform="translate(0,0)"/>
<path d="" fill="#000000" transform="translate(0,0)"/>
<path d="" fill="#000000" transform="translate(0,0)"/>
<path d="" fill="#000000" transform="translate(0,0)"/>
<path d="" fill="#000000" transform="translate(0,0)"/>
<path d="" fill="#000000" transform="translate(0,0)"/>
<path d="" fill="#000000" transform="translate(0,0)"/>
<path d="" fill="#000000" transform="translate(0,0)"/>
<path d="" fill="#000000" transform="translate(0,0)"/>
<path d="" fill="#000000" transform="translate(0,0)"/>
<path d="" fill="#000000" transform="translate(0,0)"/>
<path d="" fill="#000000" transform="translate(0,0)"/>
<path d="" fill="#000000" transform="translate(0,0)"/>
<path d="" fill="#000000" transform="translate(0,0)"/>
<path d="" fill="#000000" transform="translate(0,0)"/>
<path d="" fill="#000000" transform="translate(0,0)"/>
<path d="" fill="#000000" transform="translate(0,0)"/>
<path d="" fill="#000000" transform="translate(0,0)"/>
<path d="" fill="#000000" transform="translate(0,0)"/>
<path d="" fill="#000000" transform="translate(0,0)"/>
<path d="" fill="#000000" transform="translate(0,0)"/>
<path d="" fill="#000000" transform="translate(0,0)"/>
<path d="" fill="#000000" transform="translate(0,0)"/>
<path d="" fill="#000000" transform="translate(0,0)"/>
<path d="" fill="#000000" transform="translate(0,0)"/>
<path d="" fill="#000000" transform="translate(0,0)"/>
<path d="" fill="#000000" transform="translate(0,0)"/>
<path d="" fill="#000000" transform="translate(0,0)"/>
<path d="" fill="#000000" transform="translate(0,0)"/>
<path d="" fill="#000000" transform="translate(0,0)"/>
<path d="" fill="#000000" transform="translate(0,0)"/>
<path d="" fill="#000000" transform="translate(0,0)"/>
<path d="" fill="#000000" transform="translate(0,0)"/>
<path d="" fill="#000000" transform="translate(0,0)"/>
<path d="" fill="#000000" transform="translate(0,0)"/>
<path d="" fill="#000000" transform="translate(0,0)"/>
<path d="" fill="#000000" transform="translate(0,0)"/>
<path d="" fill="#000000" transform="translate(0,0)"/>
<path d="" fill="#000000" transform="translate(0,0)"/>
<path d="" fill="#000000" transform="translate(0,0)"/>
<path d="" fill="#000000" transform="translate(0,0)"/>
<path d="" fill="#000000" transform="translate(0,0)"/>
<path d="" fill="#000000" transform="translate(0,0)"/>
<path d="" fill="#000000" transform="translate(0,0)"/>
<path d="" fill="#000000" transform="translate(0,0)"/>
<path d="" fill="#000000" transform="translate(0,0)"/>
<path d="" fill="#000000" transform="translate(0,0)"/>
<path d="" fill="#000000" transform="translate(0,0)"/>
<path d="" fill="#000000" transform="translate(0,0)"/>
<path d="" fill="#000000" transform="translate(0,0)"/>
<path d="" fill="#000000" transform="translate(0,0)"/>
<path d="" fill="#000000" transform="translate(0,0)"/>
<path d="" fill="#000000" transform="translate(0,0)"/>
<path d="" fill="#000000" transform="translate(0,0)"/>
<path d="" fill="#000000" transform="translate(0,0)"/>
<path d="" fill="#000000" transform="translate(0,0)"/>
<path d="" fill="#000000" transform="translate(0,0)"/>
<path d="" fill="#000000" transform="translate(0,0)"/>
<path d="" fill="#000000" transform="translate(0,0)"/>
<path d="" fill="#000000" transform="translate(0,0)"/>
<path d="" fill="#000000" transform="translate(0,0)"/>
<path d="" fill="#000000" transform="translate(0,0)"/>
<path d="" fill="#000000" transform="translate(0,0)"/>
<path d="" fill="#000000" transform="translate(0,0)"/>
<path d="" fill="#000000" transform="translate(0,0)"/>
<path d="" fill="#000000" transform="translate(0,0)"/>
<path d="" fill="#000000" transform="translate(0,0)"/>
<path d="" fill="#000000" transform="translate(0,0)"/>
<path d="" fill="#000000" transform="translate(0,0)"/>
<path d="" fill="#000000" transform="translate(0,0)"/>
<path d="" fill="#000000" transform="translate(0,0)"/>
<path d="" fill="#000000" transform="translate(0,0)"/>
<path d="" fill="#000000" transform="translate(0,0)"/>
</svg>
